<?xml version="1.0" encoding="UTF-8" standalone="no"?>
<!-- Created with Inkscape (http://www.inkscape.org/) -->

<svg
   xmlns:dc="http://purl.org/dc/elements/1.1/"
   xmlns:cc="http://creativecommons.org/ns#"
   xmlns:rdf="http://www.w3.org/1999/02/22-rdf-syntax-ns#"
   xmlns:svg="http://www.w3.org/2000/svg"
   xmlns="http://www.w3.org/2000/svg"
   xmlns:sodipodi="http://sodipodi.sourceforge.net/DTD/sodipodi-0.dtd"
   xmlns:inkscape="http://www.inkscape.org/namespaces/inkscape"
   width="261.25293mm"
   height="77.383324mm"
   viewBox="0 0 261.25293 77.383324"
   version="1.1"
   id="svg8"
   inkscape:version="0.92.3 (2405546, 2018-03-11)"
   sodipodi:docname="cloud1.svg">
  <defs
     id="defs2" />
  <sodipodi:namedview
     id="base"
     pagecolor="#ffffff"
     bordercolor="#666666"
     borderopacity="1.0"
     inkscape:pageopacity="0.0"
     inkscape:pageshadow="2"
     inkscape:zoom="1.2590958"
     inkscape:cx="504.27991"
     inkscape:cy="166.48476"
     inkscape:document-units="mm"
     inkscape:current-layer="g3785"
     showgrid="false"
     inkscape:pagecheckerboard="true"
     inkscape:window-width="1920"
     inkscape:window-height="1017"
     inkscape:window-x="-8"
     inkscape:window-y="-8"
     inkscape:window-maximized="1"
     fit-margin-top="0"
     fit-margin-left="0"
     fit-margin-right="0"
     fit-margin-bottom="0" />
  <metadata
     id="metadata5">
    <rdf:RDF>
      <cc:Work
         rdf:about="">
        <dc:format>image/svg+xml</dc:format>
        <dc:type
           rdf:resource="http://purl.org/dc/dcmitype/StillImage" />
        <dc:title />
      </cc:Work>
    </rdf:RDF>
  </metadata>
  <g
     inkscape:label="Layer 1"
     inkscape:groupmode="layer"
     id="layer1"
     transform="translate(-35.508236,-72.451841)">
    <g
       id="g3785"
       style="stroke-width:2;stroke-miterlimit:4;stroke-dasharray:none">
      <path
         id="path3777"
         style="fill:none;stroke:#000000;stroke-width:2;stroke-linecap:round;stroke-linejoin:miter;stroke-miterlimit:4;stroke-dasharray:none;stroke-opacity:1;fill-opacity:1"
         d="m 51.310468,139.15635 c -3.644294,0.71149 -5.771517,0.3523 -9.309642,1.2174 -3.538125,0.8651 -5.929154,0.84791 -5.436473,1.3406 4.694459,4.69445 58.228385,-0.28381 65.153757,-1.0533 17.30197,-1.92244 33.33911,5.50287 50.10671,6.62071 12.74154,0.84943 24.65969,-3.74077 36.86529,-5.26647 14.19786,-1.77473 30.36528,1.80564 44.84024,1.80564 12.45244,0 45.33442,7.76006 56.87787,3.91224 1.32483,-0.4416 10.57794,-5.1 1.20378,-4.51412 m -38.82142,-18.20694 c 13.97458,5.54695 21.27063,18.20694 38.82142,18.20694 M 100.21341,114.93058 c -13.862142,-7.62267 -19.196116,14.22614 -27.837058,19.41071 -5.847876,3.50872 -14.815979,4.03382 -21.065884,4.81506 m 70.570702,-34.45777 c -10.38843,-5.623378 -20.5034,4.8222 -22.721056,13.69282 M 205.57625,92.309838 c 27.20286,-11.437935 49.11139,14.370312 47.4066,41.646912 m -43.86218,-30.5706 c -6.6283,-43.5016 -82.7936,-37.480813 -87.72435,4.43052"
         inkscape:connector-curvature="0" />
      <path
         style="fill:#ffffff;fill-opacity:1;stroke-width:6.00355864;stroke-linecap:round;stroke-linejoin:round;stroke-miterlimit:4;stroke-dasharray:none"
         d="m 913.3036,283.99896 c -23.5681,-1.56706 -41.3017,-3.5775 -86.68792,-9.82774 -50.25502,-6.92074 -59.72781,-7.89484 -84.75328,-8.71525 -12.38864,-0.40614 -24.54022,-0.93945 -27.0035,-1.18514 -2.46329,-0.24569 -18.41728,-1.68231 -35.45331,-3.19248 -55.33659,-4.90536 -76.13625,-5.29264 -102.80059,-1.91411 -11.47119,1.45347 -20.48251,3.16902 -63.58866,12.10584 -29.10882,6.03487 -38.98,7.22161 -60.36078,7.25673 -11.21061,0.0184 -21.67733,-0.3853 -26.20928,-1.0109 -15.21525,-2.10036 -31.8816,-5.16843 -53.21279,-9.79584 -56.20383,-12.1924 -68.50961,-14.11728 -94.11516,-14.72164 -15.86353,-0.37442 -21.08864,-0.15852 -39.71104,1.64085 -80.38014,7.76666 -158.743799,11.79112 -195.426965,10.03636 -18.572282,-0.8884 -25.587305,-1.5985 -24.061629,-2.43562 2.070838,-1.13625 13.861601,-3.129 23.316068,-3.94063 5.241857,-0.44999 10.245448,-0.9738 11.119091,-1.16401 0.873642,-0.19021 9.272527,-1.26254 18.664187,-2.38294 34.610948,-4.12899 49.851268,-7.7354 64.508188,-15.26498 11.68824,-6.0045 18.50325,-13.32785 37.55109,-40.35208 18.04154,-25.59652 27.58442,-35.02153 39.44986,-38.9626 5.4383,-1.80632 16.27391,-1.29457 21.42443,1.01183 l 3.6923,1.65342 -1.50819,4.57165 c -2.01596,6.11077 -1.92221,7.9883 0.47735,9.56056 2.98047,1.95287 5.24206,0.11076 7.04026,-5.73445 6.24893,-20.31273 23.65597,-40.56889 40.86276,-47.55105 9.95715,-4.0404 21.1984,-4.5417 30.32772,-1.35246 l 4.36822,1.526 -0.27838,5.69216 c -0.31518,6.44488 0.46006,8.03283 3.92168,8.03283 2.90016,0 3.37875,-1.01053 5.07804,-10.72198 2.98637,-17.06703 10.82913,-35.844714 20.81436,-49.83522 5.66167,-7.932675 18.38771,-21.322823 26.42971,-27.808958 26.72774,-21.556773 61.95243,-35.396161 101.68741,-39.9518505 14.16489,-1.6240315 40.31164,-1.2187125 53.6099,0.8310445 63.72721,9.82274 108.02533,47.681599 118.35803,101.153274 1.51083,7.81855 2.54527,9.65506 5.43829,9.65506 4.08492,0 4.56483,-3.18251 2.1271,-14.10583 -1.83825,-8.237137 -4.94371,-17.759209 -8.02019,-24.591786 l -2.22576,-4.94323 8.47869,-2.710216 c 13.21916,-4.225501 21.77873,-5.545824 35.87932,-5.534423 18.08603,0.01462 32.39616,3.426273 48.14724,11.478687 36.39859,18.608015 64.42438,58.496078 73.71275,104.912628 2.67939,13.38949 3.62689,23.08295 3.62689,37.10481 0,11.84498 0.0135,11.93517 1.98555,13.22729 1.79828,1.1783 2.16195,1.18538 3.85642,0.0751 1.59361,-1.04419 1.95243,-2.12604 2.42142,-7.30135 0.30276,-3.34154 0.29974,-10.03889 -0.008,-14.88299 l -0.55738,-8.80747 8.26227,4.37884 c 10.02243,5.31171 20.24684,11.88336 36.53027,23.47957 27.18943,19.36281 41.54926,27.39203 58.60745,32.76998 12.26317,3.86622 21.61456,5.42721 36.51692,6.09565 11.22965,0.50368 11.37809,0.53414 9.53065,1.95552 -3.61831,2.78385 -12.24648,6.91372 -16.96686,8.12118 -9.32478,2.38526 -29.01955,3.42645 -44.87347,2.37232 z"
         id="path817"
         inkscape:connector-curvature="0"
         transform="matrix(0.26458333,0,0,0.26458333,35.508236,72.451841)" />
    </g>
  </g>
</svg>
