<?xml version="1.0" encoding="UTF-8" standalone="no"?>
<!-- Created with Inkscape (http://www.inkscape.org/) -->

<svg
   xmlns:dc="http://purl.org/dc/elements/1.1/"
   xmlns:cc="http://creativecommons.org/ns#"
   xmlns:rdf="http://www.w3.org/1999/02/22-rdf-syntax-ns#"
   xmlns:svg="http://www.w3.org/2000/svg"
   xmlns="http://www.w3.org/2000/svg"
   xmlns:sodipodi="http://sodipodi.sourceforge.net/DTD/sodipodi-0.dtd"
   xmlns:inkscape="http://www.inkscape.org/namespaces/inkscape"
   width="346.85098mm"
   height="92.925346mm"
   viewBox="0 0 346.85098 92.925346"
   version="1.1"
   id="svg821"
   sodipodi:docname="hill.svg"
   inkscape:version="0.92.3 (2405546, 2018-03-11)">
  <defs
     id="defs815" />
  <sodipodi:namedview
     id="base"
     pagecolor="#ffffff"
     bordercolor="#666666"
     borderopacity="1.0"
     inkscape:pageopacity="0.0"
     inkscape:pageshadow="2"
     inkscape:zoom="0.96364016"
     inkscape:cx="580.92849"
     inkscape:cy="392.80018"
     inkscape:document-units="mm"
     inkscape:current-layer="layer1"
     showgrid="false"
     inkscape:pagecheckerboard="true"
     inkscape:window-width="1920"
     inkscape:window-height="1017"
     inkscape:window-x="-8"
     inkscape:window-y="-8"
     inkscape:window-maximized="1"
     fit-margin-top="0"
     fit-margin-left="0"
     fit-margin-right="0"
     fit-margin-bottom="0" />
  <metadata
     id="metadata818">
    <rdf:RDF>
      <cc:Work
         rdf:about="">
        <dc:format>image/svg+xml</dc:format>
        <dc:type
           rdf:resource="http://purl.org/dc/dcmitype/StillImage" />
        <dc:title></dc:title>
      </cc:Work>
    </rdf:RDF>
  </metadata>
  <g
     inkscape:label="Layer 1"
     inkscape:groupmode="layer"
     id="layer1"
     transform="translate(-30.812469,-158.57258)">
    <path
       style="fill:#1b906a;fill-opacity:1;stroke:none;stroke-width:0.32008851px;stroke-linecap:butt;stroke-linejoin:miter;stroke-opacity:1"
       d="m 174.64985,166.93221 c -2.86019,-3.59174 -8.12657,-4.25089 -11.7598,-3.5465 4.32801,-1.49524 9.21022,-1.3168 12.52202,1.64659 -0.12514,-3.15938 -2.12002,-5.19092 -4.02883,-6.45972 3.53328,0.69556 4.35695,3.55159 5.22659,6.58638 1.60116,-1.55166 1.19775,-4.229 1.19775,-6.07975 1.06883,2.27373 1.20081,4.54922 0.54444,6.83973 0.20569,-2.07031 1.56243,-3.21663 2.28664,-3.79985 -1.42692,1.35253 -1.5132,2.38434 -1.30665,4.30648 1.34681,-1.87681 2.4788,-2.30412 4.13771,-2.78654 -1.96249,0.90997 -2.49656,2.38831 -3.15773,3.9265 z"
       id="path968"
       inkscape:connector-curvature="0"
       sodipodi:nodetypes="ccccccccccc" />
    <path
       style="fill:#00c1a6;fill-opacity:1;stroke:#000000;stroke-width:2;stroke-linecap:butt;stroke-linejoin:miter;stroke-miterlimit:4;stroke-dasharray:none;stroke-opacity:1"
       d="m 32.606883,250.09419 c 34.644526,-55.93093 112.651687,-101.7414 186.554127,-77.10725 19.54329,6.51443 49.9931,-1.99767 68.95553,7.48354 30.3205,15.16025 65.98642,48.88116 87.12988,70.02462 z"
       id="path812"
       inkscape:connector-curvature="0"
       sodipodi:nodetypes="cssc" />
    <g
       id="g936"
       transform="matrix(0.35931017,0,0,0.35931017,158.29135,112.4554)">
      <path
         inkscape:connector-curvature="0"
         id="path830"
         d="m 276.26326,183.04906 c 4.35456,-11.91738 1.15182,-20.10086 -3.52484,-28.58636"
         style="fill:none;stroke:#1b906a;stroke-width:2.35899997;stroke-linecap:round;stroke-linejoin:miter;stroke-miterlimit:4;stroke-dasharray:none;stroke-opacity:1" />
      <path
         inkscape:connector-curvature="0"
         id="path848"
         d="m 272.73842,154.4627 c 11.63046,-12.72777 -9.9486,-20.36114 -6.98693,-11.36108 1.51903,4.61609 5.80101,6.85631 6.98693,11.36108 z"
         style="fill:#ff8080;fill-opacity:1;stroke:none;stroke-width:0.14678541;stroke-linecap:butt;stroke-linejoin:miter;stroke-miterlimit:4;stroke-dasharray:none;stroke-opacity:1" />
      <path
         inkscape:connector-curvature="0"
         id="path848-4"
         d="m 272.73842,154.4627 c 15.48226,7.40551 16.17599,-15.73682 8.59384,-10.16783 -3.88886,2.85632 -4.70957,7.6668 -8.59384,10.16783 z"
         style="fill:#ff8080;fill-opacity:1;stroke:none;stroke-width:0.14678541;stroke-linecap:butt;stroke-linejoin:miter;stroke-miterlimit:4;stroke-dasharray:none;stroke-opacity:1" />
      <path
         inkscape:connector-curvature="0"
         id="path848-4-0"
         d="m 272.73842,154.4627 c -3.88852,16.89008 18.59225,12.70627 11.62176,6.37009 -3.57514,-3.2498 -8.39048,-3.05005 -11.62176,-6.37009 z"
         style="fill:#ff8080;fill-opacity:1;stroke:none;stroke-width:0.14678541;stroke-linecap:butt;stroke-linejoin:miter;stroke-miterlimit:4;stroke-dasharray:none;stroke-opacity:1" />
      <path
         inkscape:connector-curvature="0"
         id="path848-4-1"
         d="m 272.73842,154.4627 c -17.02212,1.86682 -5.6915,21.97482 -2.09265,13.2163 1.84584,-4.49222 0.0677,-9.02958 2.09265,-13.2163 z"
         style="fill:#ff8080;fill-opacity:1;stroke:none;stroke-width:0.14678541;stroke-linecap:butt;stroke-linejoin:miter;stroke-miterlimit:4;stroke-dasharray:none;stroke-opacity:1" />
      <path
         inkscape:connector-curvature="0"
         id="path848-4-1-8"
         d="m 272.73842,154.4627 c -7.57276,-15.55468 -22.32965,2.12635 -12.97314,2.54461 4.79893,0.21453 8.39602,-3.0344 12.97314,-2.54461 z"
         style="fill:#ff8080;fill-opacity:1;stroke:none;stroke-width:0.14678541;stroke-linecap:butt;stroke-linejoin:miter;stroke-miterlimit:4;stroke-dasharray:none;stroke-opacity:1" />
      <ellipse
         ry="5.3782492"
         rx="4.947989"
         cy="154.64104"
         cx="272.75406"
         id="path908"
         style="fill:#ffe400;fill-opacity:1;stroke:none;stroke-width:4.62364054;stroke-linecap:round;stroke-linejoin:round;stroke-miterlimit:4;stroke-dasharray:none;stroke-opacity:1" />
    </g>
    <path
       style="fill:#1b906a;fill-opacity:1;stroke:none;stroke-width:0.26499999;stroke-linecap:butt;stroke-linejoin:round;stroke-miterlimit:4;stroke-dasharray:none;stroke-opacity:1"
       d="m 103.53463,190.5161 c 0.46769,-3.74149 -2.28766,-6.8142 -4.967177,-10.08958 1.702997,2.98023 2.695367,6.46701 2.949267,10.24481 -1.3152,-7.01437 -8.439147,-12.36025 -13.194067,-16.29856 4.16532,4.48574 7.36277,10.94993 8.07166,17.07468 -2.67266,-3.49959 -5.45017,-6.30904 -8.69256,-7.606 3.10879,3.2059 6.75795,7.10346 7.76122,10.86571 z"
       id="path960"
       inkscape:connector-curvature="0" />
    <path
       style="fill:#1b906a;fill-opacity:1;stroke:none;stroke-width:0.26458332px;stroke-linecap:butt;stroke-linejoin:round;stroke-opacity:1"
       d="m 298.12128,199.83961 c -2.6359,-5.378 -8.57356,-8.23802 -13.87288,-9.48579 6.89829,-0.97247 12.40393,3.59765 15.42859,7.61953 -1.20467,-3.4507 -3.71982,-6.20276 -5.84698,-9.03124 4.73288,1.9872 5.69222,6.78135 7.29553,10.32914 0.85241,-3.3174 0.83457,-4.77609 -0.8877,-7.0662 3.31133,3.6345 4.30419,6.95146 1.91814,10.81715 z"
       id="path962"
       inkscape:connector-curvature="0" />
    <path
       style="fill:#1b906a;fill-opacity:1;stroke:none;stroke-width:0.32008851px;stroke-linecap:butt;stroke-linejoin:miter;stroke-opacity:1"
       d="m 220.6629,211.74929 c -2.86019,-3.59174 -8.12657,-4.25089 -11.7598,-3.5465 4.32801,-1.49524 9.21022,-1.3168 12.52202,1.64659 -0.12514,-3.15938 -2.12002,-5.19092 -4.02883,-6.45972 3.53328,0.69556 4.35695,3.55159 5.22659,6.58638 1.60116,-1.55166 1.19775,-4.229 1.19775,-6.07975 1.06883,2.27373 1.20081,4.54922 0.54444,6.83973 0.20569,-2.07031 1.56243,-3.21663 2.28664,-3.79985 -1.42692,1.35253 -1.5132,2.38434 -1.30665,4.30648 1.34681,-1.87681 2.4788,-2.30412 4.13771,-2.78654 -1.96249,0.90997 -2.49656,2.38831 -3.15773,3.9265 z"
       id="path968-3"
       inkscape:connector-curvature="0"
       sodipodi:nodetypes="ccccccccccc" />
  </g>
</svg>
