<?xml version="1.0" encoding="UTF-8" standalone="no"?>
<!-- Created with Inkscape (http://www.inkscape.org/) -->

<?xml-stylesheet type="text/css" href="./index.css"?><svg
   xmlns:dc="http://purl.org/dc/elements/1.1/"
   xmlns:cc="http://creativecommons.org/ns#"
   xmlns:rdf="http://www.w3.org/1999/02/22-rdf-syntax-ns#"
   xmlns:svg="http://www.w3.org/2000/svg"
   xmlns="http://www.w3.org/2000/svg"
   xmlns:sodipodi="http://sodipodi.sourceforge.net/DTD/sodipodi-0.dtd"
   xmlns:inkscape="http://www.inkscape.org/namespaces/inkscape"
   width="314.02722mm"
   height="134.84309mm"
   viewBox="0 0 314.02722 134.84309"
   version="1.1"
   id="svg821"
   sodipodi:docname="rainbow-bg.svg"
   inkscape:version="0.92.3 (2405546, 2018-03-11)">
  <defs
     id="defs815">
    <style
       type="text/css"
       id="style2">
      @import url('https://fonts.googleapis.com/css?family=Indie+Flower');
    </style>
  </defs>
  <sodipodi:namedview
     id="base"
     pagecolor="#ffffff"
     bordercolor="#666666"
     borderopacity="1.0"
     inkscape:pageopacity="0.0"
     inkscape:pageshadow="2"
     inkscape:zoom="0.47810755"
     inkscape:cx="149.30846"
     inkscape:cy="261.61905"
     inkscape:document-units="mm"
     inkscape:current-layer="layer1"
     showgrid="false"
     inkscape:pagecheckerboard="true"
     inkscape:window-width="1366"
     inkscape:window-height="705"
     inkscape:window-x="-8"
     inkscape:window-y="-8"
     inkscape:window-maximized="1"
     fit-margin-top="0"
     fit-margin-left="0"
     fit-margin-right="0"
     fit-margin-bottom="0" />
  <metadata
     id="metadata818">
    <rdf:RDF>
      <cc:Work
         rdf:about="">
        <dc:format>image/svg+xml</dc:format>
        <dc:type
           rdf:resource="http://purl.org/dc/dcmitype/StillImage" />
        <dc:title></dc:title>
      </cc:Work>
    </rdf:RDF>
  </metadata>
  <g
     inkscape:label="Layer 1"
     inkscape:groupmode="layer"
     id="layer1"
     transform="translate(-45.764748,-29.545724)">
    <path
       style="color:#000000;font-style:normal;font-variant:normal;font-weight:normal;font-stretch:normal;font-size:medium;line-height:normal;font-family:sans-serif;font-variant-ligatures:normal;font-variant-position:normal;font-variant-caps:normal;font-variant-numeric:normal;font-variant-alternates:normal;font-feature-settings:normal;text-indent:0;text-align:start;text-decoration:none;text-decoration-line:none;text-decoration-style:solid;text-decoration-color:#000000;letter-spacing:normal;word-spacing:normal;text-transform:none;writing-mode:lr-tb;direction:ltr;text-orientation:mixed;dominant-baseline:auto;baseline-shift:baseline;text-anchor:start;white-space:normal;shape-padding:0;clip-rule:nonzero;display:inline;overflow:visible;visibility:visible;opacity:1;isolation:auto;mix-blend-mode:normal;color-interpolation:sRGB;color-interpolation-filters:linearRGB;solid-color:#000000;solid-opacity:1;vector-effect:none;fill:#000000;fill-opacity:1;fill-rule:nonzero;stroke:none;stroke-width:7.55905533;stroke-linecap:round;stroke-linejoin:round;stroke-miterlimit:4;stroke-dasharray:none;stroke-dashoffset:0;stroke-opacity:1;color-rendering:auto;image-rendering:auto;shape-rendering:auto;text-rendering:auto;enable-background:accumulate"
       d="m 747.80469,183.48047 c 3.86849,0.005 7.7374,0.0442 11.60742,0.11523 247.68099,4.54527 497.80179,144.12311 600.16209,400.02344 a 3.7799055,3.7799055 0 0 1 -2.8926,5.13086 c -11.3466,1.87699 -16.726,2.89673 -19.1562,3.41797 -0.9335,0.19994 -1.1093,0.25713 -1.2481,0.29492 a 3.7799055,3.7799055 0 0 1 -2.0293,0.45117 l -30.2226,2.90039 a 3.7799055,3.7799055 0 0 1 -0.8848,0.125 l -24.6269,4.51758 a 3.7799055,3.7799055 0 0 1 -1.5801,0.21485 l -25.5703,1.76367 a 3.7799055,3.7799055 0 0 1 -1.2324,0.082 l -29.4532,1.51367 a 3.7799055,3.7799055 0 0 1 -0.7089,0.0723 l -28.4356,4.42187 a 3.7799055,3.7799055 0 0 1 -2.6934,-0.16211 3.7799055,3.7799055 0 0 1 -0.01,0 3.7799055,3.7799055 0 0 1 -0.164,-0.0801 3.7799055,3.7799055 0 0 1 -0.1758,-0.0898 3.7799055,3.7799055 0 0 1 -1.6172,-1.74805 C 1083.7888,441.37516 917.52054,355.92497 753.40234,355.94727 589.2973,355.96969 427.37953,441.31124 332.55469,618.75586 a 3.7799055,3.7799055 0 0 1 -0.0156,0.0312 3.7799055,3.7799055 0 0 1 -1.73437,2.02344 3.7799055,3.7799055 0 0 1 -0.33985,0.16797 3.7799055,3.7799055 0 0 1 -0.23632,0.0977 3.7799055,3.7799055 0 0 1 -0.008,0 3.7799055,3.7799055 0 0 1 -3.1582,-0.24414 l -23.32031,-8.52539 a 3.7799055,3.7799055 0 0 1 -0.60547,-0.16992 l -24.18945,-5.01953 a 3.7799055,3.7799055 0 0 1 -0.8418,-0.13477 l -24.55274,-2.9375 a 3.7799055,3.7799055 0 0 1 -1.32812,-0.18359 l -24.27149,-3.91992 a 3.7799055,3.7799055 0 0 1 -0.29492,-0.008 l -28.7539,2.31836 a 3.7799055,3.7799055 0 0 1 -2.0586,-0.0898 3.7799055,3.7799055 0 0 1 -0.0156,-0.006 l -20.66797,-3.26367 a 3.7799055,3.7799055 0 0 1 -3.00586,-4.9082 C 264.5398,314.29003 504.08971,183.174 747.80469,183.48047 Z"
       transform="scale(0.26458333)"
       id="rainbow-outline"
       inkscape:connector-curvature="0" />
    <path
       style="color:#000000;font-style:normal;font-variant:normal;font-weight:normal;font-stretch:normal;font-size:medium;line-height:normal;font-family:sans-serif;font-variant-ligatures:normal;font-variant-position:normal;font-variant-caps:normal;font-variant-numeric:normal;font-variant-alternates:normal;font-feature-settings:normal;text-indent:0;text-align:start;text-decoration:none;text-decoration-line:none;text-decoration-style:solid;text-decoration-color:#000000;letter-spacing:normal;word-spacing:normal;text-transform:none;writing-mode:lr-tb;direction:ltr;text-orientation:mixed;dominant-baseline:auto;baseline-shift:baseline;text-anchor:start;white-space:normal;shape-padding:0;clip-rule:nonzero;display:inline;overflow:visible;visibility:visible;opacity:1;isolation:auto;mix-blend-mode:normal;color-interpolation:sRGB;color-interpolation-filters:linearRGB;solid-color:#000000;solid-opacity:1;vector-effect:none;fill:#e50000;fill-opacity:1;fill-rule:nonzero;stroke:none;stroke-width:7.55905533;stroke-linecap:round;stroke-linejoin:round;stroke-miterlimit:4;stroke-dasharray:none;stroke-dashoffset:0;stroke-opacity:1;color-rendering:auto;image-rendering:auto;shape-rendering:auto;text-rendering:auto;enable-background:accumulate"
       d="M 747.85938,191.0332 C 508.11157,190.69337 273.33957,318.45154 181.9043,592.15234 l 13.76758,2.17188 c 95.65664,-267.71665 328.70801,-391.66957 563.76953,-387.63086 234.97406,4.0372 472.17139,135.66431 577.09379,377.97461 2.0662,-0.43669 7.8513,-1.4437 14.1074,-2.51758 C 1248.415,332.10481 1002.7958,195.61533 759.2793,191.14648 c -3.80748,-0.0699 -7.6144,-0.10788 -11.41992,-0.11328 z"
       transform="scale(0.26458333)"
       id="rainbow-red"
       class="rainbow-red"
       inkscape:connector-curvature="0" />
    <path
       style="color:#000000;font-style:normal;font-variant:normal;font-weight:normal;font-stretch:normal;font-size:medium;line-height:normal;font-family:sans-serif;font-variant-ligatures:normal;font-variant-position:normal;font-variant-caps:normal;font-variant-numeric:normal;font-variant-alternates:normal;font-feature-settings:normal;text-indent:0;text-align:start;text-decoration:none;text-decoration-line:none;text-decoration-style:solid;text-decoration-color:#000000;letter-spacing:normal;word-spacing:normal;text-transform:none;writing-mode:lr-tb;direction:ltr;text-orientation:mixed;dominant-baseline:auto;baseline-shift:baseline;text-anchor:start;white-space:normal;shape-padding:0;clip-rule:nonzero;display:inline;overflow:visible;visibility:visible;opacity:1;isolation:auto;mix-blend-mode:normal;color-interpolation:sRGB;color-interpolation-filters:linearRGB;solid-color:#000000;solid-opacity:1;vector-effect:none;fill:#ff8d00;fill-opacity:1;fill-rule:nonzero;stroke:none;stroke-width:7.55905533;stroke-linecap:round;stroke-linejoin:round;stroke-miterlimit:4;stroke-dasharray:none;stroke-dashoffset:0;stroke-opacity:1;color-rendering:auto;image-rendering:auto;shape-rendering:auto;text-rendering:auto;enable-background:accumulate"
       d="M 748.45703,214.15625 C 520.64486,214.09139 297.50896,335.4698 203.81445,594.27148 l 21.5918,-1.74218 C 323.13643,344.00019 540.829,228.58831 760.10547,232.75781 c 219.14441,4.167 440.02963,127.51164 545.16213,355.3418 l 23.4726,-2.25 C 1224.6626,347.62448 990.94677,218.23184 759.30859,214.25195 c -3.61792,-0.0622 -7.23549,-0.0947 -10.85156,-0.0957 z"
       transform="scale(0.26458333)"
       id="path1571"
       inkscape:connector-curvature="0" />
    <path
       style="color:#000000;font-style:normal;font-variant:normal;font-weight:normal;font-stretch:normal;font-size:medium;line-height:normal;font-family:sans-serif;font-variant-ligatures:normal;font-variant-position:normal;font-variant-caps:normal;font-variant-numeric:normal;font-variant-alternates:normal;font-feature-settings:normal;text-indent:0;text-align:start;text-decoration:none;text-decoration-line:none;text-decoration-style:solid;text-decoration-color:#000000;letter-spacing:normal;word-spacing:normal;text-transform:none;writing-mode:lr-tb;direction:ltr;text-orientation:mixed;dominant-baseline:auto;baseline-shift:baseline;text-anchor:start;white-space:normal;shape-padding:0;clip-rule:nonzero;display:inline;overflow:visible;visibility:visible;opacity:1;isolation:auto;mix-blend-mode:normal;color-interpolation:sRGB;color-interpolation-filters:linearRGB;solid-color:#000000;solid-opacity:1;vector-effect:none;fill:#ffee00;fill-opacity:1;fill-rule:nonzero;stroke:none;stroke-width:7.55905533;stroke-linecap:round;stroke-linejoin:round;stroke-miterlimit:4;stroke-dasharray:none;stroke-dashoffset:0;stroke-opacity:1;color-rendering:auto;image-rendering:auto;shape-rendering:auto;text-rendering:auto;enable-background:accumulate"
       d="m 749.84766,240.21094 c -212.4227,-0.4429 -420.9657,112.56379 -516.48438,352.94531 l 17.86524,2.87891 C 350.50433,366.54479 554.52471,259.19884 760.11328,262.7207 c 205.57803,3.52169 412.79592,117.66645 519.10352,329.92774 l 18.2031,-3.34571 C 1193.1716,365.47192 975.73043,244.42107 759.9668,240.31836 h -0.002 c -3.3733,-0.0641 -6.74539,-0.10039 -10.11718,-0.10742 z"
       transform="scale(0.26458333)"
       id="path1569"
       inkscape:connector-curvature="0" />
    <path
       style="color:#000000;font-style:normal;font-variant:normal;font-weight:normal;font-stretch:normal;font-size:medium;line-height:normal;font-family:sans-serif;font-variant-ligatures:normal;font-variant-position:normal;font-variant-caps:normal;font-variant-numeric:normal;font-variant-alternates:normal;font-feature-settings:normal;text-indent:0;text-align:start;text-decoration:none;text-decoration-line:none;text-decoration-style:solid;text-decoration-color:#000000;letter-spacing:normal;word-spacing:normal;text-transform:none;writing-mode:lr-tb;direction:ltr;text-orientation:mixed;dominant-baseline:auto;baseline-shift:baseline;text-anchor:start;white-space:normal;shape-padding:0;clip-rule:nonzero;display:inline;overflow:visible;visibility:visible;opacity:1;isolation:auto;mix-blend-mode:normal;color-interpolation:sRGB;color-interpolation-filters:linearRGB;solid-color:#000000;solid-opacity:1;vector-effect:none;fill:#008121;fill-opacity:1;fill-rule:nonzero;stroke:none;stroke-width:7.55905533;stroke-linecap:round;stroke-linejoin:round;stroke-miterlimit:4;stroke-dasharray:none;stroke-dashoffset:0;stroke-opacity:1;color-rendering:auto;image-rendering:auto;shape-rendering:auto;text-rendering:auto;enable-background:accumulate"
       d="M 750.5,270.19727 C 551.46475,270.12057 355.96746,375.17179 259.07422,597.0918 l 17.92383,2.14843 c 99.97823,-209.94878 290.41034,-309.13826 482.48828,-306.59961 192.131,2.53937 385.94697,106.65199 493.08007,302.13282 l 18.5215,-1.27735 C 1165.6724,385.44633 962.0142,273.7422 759.98242,270.28125 h -0.002 c -3.16069,-0.0541 -6.32118,-0.0828 -9.48047,-0.084 z"
       transform="scale(0.26458333)"
       id="path1567"
       inkscape:connector-curvature="0" />
    <path
       style="color:#000000;font-style:normal;font-variant:normal;font-weight:normal;font-stretch:normal;font-size:medium;line-height:normal;font-family:sans-serif;font-variant-ligatures:normal;font-variant-position:normal;font-variant-caps:normal;font-variant-numeric:normal;font-variant-alternates:normal;font-feature-settings:normal;text-indent:0;text-align:start;text-decoration:none;text-decoration-line:none;text-decoration-style:solid;text-decoration-color:#000000;letter-spacing:normal;word-spacing:normal;text-transform:none;writing-mode:lr-tb;direction:ltr;text-orientation:mixed;dominant-baseline:auto;baseline-shift:baseline;text-anchor:start;white-space:normal;shape-padding:0;clip-rule:nonzero;display:inline;overflow:visible;visibility:visible;opacity:1;isolation:auto;mix-blend-mode:normal;color-interpolation:sRGB;color-interpolation-filters:linearRGB;solid-color:#000000;solid-opacity:1;vector-effect:none;fill:#004cff;fill-opacity:1;fill-rule:nonzero;stroke:none;stroke-width:7.55905533;stroke-linecap:round;stroke-linejoin:round;stroke-miterlimit:4;stroke-dasharray:none;stroke-dashoffset:0;stroke-opacity:1;color-rendering:auto;image-rendering:auto;shape-rendering:auto;text-rendering:auto;enable-background:accumulate"
       d="m 750.54102,300.1543 c -185.79422,0.60032 -368.288,97.57422 -465.75586,300.45117 l 17.76953,3.68359 c 99.0568,-191.3608 275.53911,-282.97689 453.85351,-281.77344 178.45573,1.20441 358.7245,95.19847 465.502,273.88282 l 22.1757,-1.14453 C 1137.9001,404.23382 947.80329,302.68944 759.39062,300.19922 c -2.95045,-0.039 -5.90049,-0.0545 -8.8496,-0.0449 z"
       transform="scale(0.26458333)"
       id="path1565"
       inkscape:connector-curvature="0" />
    <path
       style="color:#000000;font-style:normal;font-variant:normal;font-weight:normal;font-stretch:normal;font-size:medium;line-height:normal;font-family:sans-serif;font-variant-ligatures:normal;font-variant-position:normal;font-variant-caps:normal;font-variant-numeric:normal;font-variant-alternates:normal;font-feature-settings:normal;text-indent:0;text-align:start;text-decoration:none;text-decoration-line:none;text-decoration-style:solid;text-decoration-color:#000000;letter-spacing:normal;word-spacing:normal;text-transform:none;writing-mode:lr-tb;direction:ltr;text-orientation:mixed;dominant-baseline:auto;baseline-shift:baseline;text-anchor:start;white-space:normal;shape-padding:0;clip-rule:nonzero;display:inline;overflow:visible;visibility:visible;opacity:1;isolation:auto;mix-blend-mode:normal;color-interpolation:sRGB;color-interpolation-filters:linearRGB;solid-color:#000000;solid-opacity:1;vector-effect:none;fill:#750188;fill-opacity:1;fill-rule:nonzero;stroke:none;stroke-width:7.55905533;stroke-linecap:round;stroke-linejoin:round;stroke-miterlimit:4;stroke-dasharray:none;stroke-dashoffset:0;stroke-opacity:1;color-rendering:auto;image-rendering:auto;shape-rendering:auto;text-rendering:auto;enable-background:accumulate"
       d="m 756.35547,330.07422 c -175.30485,-1.18314 -348.45289,88.3335 -446.39649,276.45117 l 17.28711,6.32617 c 96.22083,-178.0766 260.17626,-264.44021 426.15625,-264.46289 166.17377,-0.0227 334.29076,86.33027 438.77346,252.38672 l 21.4453,-3.33594 C 1107.9586,422.85797 931.22887,331.25443 756.35742,330.07422 Z"
       transform="scale(0.26458333)"
       id="path1364-2-3-3-4-7-0-9"
       inkscape:connector-curvature="0" />
  </g>
</svg>
